<svg width="0" height="0" class="hidden">
    <symbol fill="none" xmlns="http://www.w3.org/2000/svg" viewBox="0 0 20 20" id="exit" width="20"
          height="20">
    <path
            fill-rule="evenodd"
            d="M8.32 2h.93a.75.75 0 1 1 0 1.5h-.9c-1 0-1.7 0-2.24.04a2.9 2.9 0 0 0-1.1.26A2.75 2.75 0 0 0 3.8 5c-.13.25-.21.57-.26 1.11-.04.55-.04 1.25-.04 2.24v3.3c0 1 0 1.7.04 2.24.05.53.13.86.26 1.1A2.75 2.75 0 0 0 5 16.2c.25.13.57.21 1.11.26.55.04 1.25.04 2.24.04h.9a.75.75 0 0 1 0 1.5h-.93c-.96 0-1.72 0-2.33-.05a4.39 4.39 0 0 1-1.67-.41 4.25 4.25 0 0 1-1.86-1.86A4.38 4.38 0 0 1 2.05 14C2 13.4 2 12.64 2 11.68V8.32c0-.96 0-1.72.05-2.33.05-.63.16-1.17.41-1.67a4.25 4.25 0 0 1 1.86-1.86c.5-.25 1.04-.36 1.67-.41C6.6 2 7.36 2 8.32 2Zm5.9 4.97a.75.75 0 0 1 1.06 0l2.5 2.5a.75.75 0 0 1 0 1.06l-2.5 2.5a.75.75 0 1 1-1.06-1.06l1.22-1.22H8.75a.75.75 0 0 1 0-1.5h6.69l-1.22-1.22a.75.75 0 0 1 0-1.06Z"
            clip-rule="evenodd"
            fill="currentColor"
          ></path>
    </symbol>
    <symbol fill="none" xmlns="http://www.w3.org/2000/svg" viewBox="0 0 24 24" id="icon-load" width="20"
          height="20">
    <path
            d="M14.2647 15.9377L12.5473 14.2346C11.758 13.4519 11.3633 13.0605 10.9089 12.9137C10.5092 12.7845 10.079 12.7845 9.67922 12.9137C9.22485 13.0605 8.83017 13.4519 8.04082 14.2346L4.04193 18.2622M14.2647 15.9377L14.606 15.5991C15.412 14.7999 15.8149 14.4003 16.2773 14.2545C16.6839 14.1262 17.1208 14.1312 17.5244 14.2688C17.9832 14.4253 18.3769 14.834 19.1642 15.6515L20 16.5001M14.2647 15.9377L18.22 19.9628M18.22 19.9628C17.8703 20 17.4213 20 16.8 20H7.2C6.07989 20 5.51984 20 5.09202 19.782C4.7157 19.5903 4.40973 19.2843 4.21799 18.908C4.12583 18.7271 4.07264 18.5226 4.04193 18.2622M18.22 19.9628C18.5007 19.9329 18.7175 19.8791 18.908 19.782C19.2843 19.5903 19.5903 19.2843 19.782 18.908C20 18.4802 20 17.9201 20 16.8V13M11 4H7.2C6.07989 4 5.51984 4 5.09202 4.21799C4.7157 4.40973 4.40973 4.71569 4.21799 5.09202C4 5.51984 4 6.0799 4 7.2V16.8C4 17.4466 4 17.9066 4.04193 18.2622M18 9V6M18 6V3M18 6H21M18 6H15"
            stroke="currentColor"
            stroke-width="2"
            stroke-linecap="round"
            stroke-linejoin="round"
          />
    </symbol>
    <symbol fill="none" xmlns="http://www.w3.org/2000/svg" viewBox="0 0 24 24" id="icon-delete" width="20"
          height="20">
    <path
            d="M14.2639 15.9376L12.5958 14.2835C11.7909 13.4852 11.3884 13.0861 10.9266 12.9402C10.5204 12.8119 10.0838 12.8166 9.68048 12.9537C9.22188 13.1096 8.82814 13.5173 8.04068 14.3327L4.04409 18.2802M14.2639 15.9376L14.6053 15.5991C15.4112 14.7999 15.8141 14.4003 16.2765 14.2544C16.6831 14.1262 17.12 14.1312 17.5236 14.2688C17.9824 14.4252 18.3761 14.834 19.1634 15.6515L20 16.4936M14.2639 15.9376L18.275 19.9566M20.9992 6.00011H14.9992M11 3.99951L7.2 4.00011C6.07989 4.00011 5.51984 4.00011 5.09202 4.21809C4.71569 4.40984 4.40973 4.7158 4.21799 5.09213C4 5.51995 4 6.08 4 7.20011V16.8001C4 17.4576 4 17.9222 4.04409 18.2802M20 9.99951V16.4936M4.04409 18.2802C4.07512 18.5322 4.12796 18.7314 4.21799 18.9081C4.40973 19.2844 4.71569 19.5904 5.09202 19.7821C5.51984 20.0001 6.07989 20.0001 7.2 20.0001H16.8C17.9201 20.0001 18.4802 20.0001 18.908 19.7821C19.2843 19.5904 19.5903 19.2844 19.782 18.9081C20 18.4803 20 17.9202 20 16.8001V16.4936"
            stroke="currentColor"
            stroke-width="2"
            stroke-linecap="round"
            stroke-linejoin="round"
          />
    </symbol>
    <symbol fill="none" xmlns="http://www.w3.org/2000/svg" viewBox="0 0 24 24" id="icon-user" width="20"
          height="20">
    <path d="M14.0295 15.7412C14.1628 16.2772 14.7052 16.6037 15.2412 16.4705C15.7772 16.3372 16.1037 15.7948 15.9705 15.2588L14.0295 15.7412ZM8.02953 15.2588C7.89631 15.7948 8.2228 16.3372 8.75878 16.4705C9.29476 16.6037 9.83725 16.2772 9.97047 15.7412L8.02953 15.2588ZM12 8.5C11.4477 8.5 11 8.94772 11 9.5C11 10.0523 11.4477 10.5 12 10.5V8.5ZM12.01 10.5C12.5623 10.5 13.01 10.0523 13.01 9.5C13.01 8.94772 12.5623 8.5 12.01 8.5V10.5ZM4.09202 19.782L4.54601 18.891L4.09202 19.782ZM3.21799 18.908L4.10899 18.454L3.21799 18.908ZM20.782 18.908L19.891 18.454L20.782 18.908ZM19.908 19.782L19.454 18.891L19.908 19.782ZM19.908 4.21799L19.454 5.10899L19.908 4.21799ZM20.782 5.09202L19.891 5.54601L20.782 5.09202ZM4.09202 4.21799L4.54601 5.10899L4.09202 4.21799ZM3.21799 5.09202L4.10899 5.54601L3.21799 5.09202ZM12 9.5V11.5C13.1046 11.5 14 10.6046 14 9.5H12ZM12 9.5H10C10 10.6046 10.8954 11.5 12 11.5V9.5ZM12 9.5V7.5C10.8954 7.5 10 8.39543 10 9.5H12ZM12 9.5H14C14 8.39543 13.1046 7.5 12 7.5V9.5ZM12 14.5C13.145 14.5 13.8839 15.1554 14.0295 15.7412L15.9705 15.2588C15.5488 13.5624 13.817 12.5 12 12.5V14.5ZM9.97047 15.7412C10.1161 15.1554 10.855 14.5 12 14.5V12.5C10.183 12.5 8.45119 13.5624 8.02953 15.2588L9.97047 15.7412ZM12 10.5H12.01V8.5H12V10.5ZM6.2 5H17.8V3H6.2V5ZM20 7.2V16.8H22V7.2H20ZM17.8 19H6.2V21H17.8V19ZM4 16.8V7.2H2V16.8H4ZM6.2 19C5.62345 19 5.25117 18.9992 4.96784 18.9761C4.69617 18.9539 4.59545 18.9162 4.54601 18.891L3.63803 20.673C4.01641 20.8658 4.40963 20.9371 4.80497 20.9694C5.18864 21.0008 5.65645 21 6.2 21V19ZM2 16.8C2 17.3436 1.99922 17.8114 2.03057 18.195C2.06287 18.5904 2.13419 18.9836 2.32698 19.362L4.10899 18.454C4.0838 18.4045 4.04612 18.3038 4.02393 18.0322C4.00078 17.7488 4 17.3766 4 16.8H2ZM4.54601 18.891C4.35785 18.7951 4.20487 18.6422 4.10899 18.454L2.32698 19.362C2.6146 19.9265 3.07354 20.3854 3.63803 20.673L4.54601 18.891ZM20 16.8C20 17.3766 19.9992 17.7488 19.9761 18.0322C19.9539 18.3038 19.9162 18.4045 19.891 18.454L21.673 19.362C21.8658 18.9836 21.9371 18.5904 21.9694 18.195C22.0008 17.8114 22 17.3436 22 16.8H20ZM17.8 21C18.3436 21 18.8114 21.0008 19.195 20.9694C19.5904 20.9371 19.9836 20.8658 20.362 20.673L19.454 18.891C19.4045 18.9162 19.3038 18.9539 19.0322 18.9761C18.7488 18.9992 18.3766 19 17.8 19V21ZM19.891 18.454C19.7951 18.6422 19.6422 18.7951 19.454 18.891L20.362 20.673C20.9265 20.3854 21.3854 19.9265 21.673 19.362L19.891 18.454ZM17.8 5C18.3766 5 18.7488 5.00078 19.0322 5.02393C19.3038 5.04612 19.4045 5.0838 19.454 5.10899L20.362 3.32698C19.9836 3.13419 19.5904 3.06287 19.195 3.03057C18.8114 2.99922 18.3436 3 17.8 3V5ZM22 7.2C22 6.65645 22.0008 6.18864 21.9694 5.80497C21.9371 5.40963 21.8658 5.01641 21.673 4.63803L19.891 5.54601C19.9162 5.59545 19.9539 5.69617 19.9761 5.96784C19.9992 6.25117 20 6.62345 20 7.2H22ZM19.454 5.10899C19.6422 5.20487 19.7951 5.35785 19.891 5.54601L21.673 4.63803C21.3854 4.07354 20.9265 3.6146 20.362 3.32698L19.454 5.10899ZM6.2 3C5.65645 3 5.18864 2.99922 4.80497 3.03057C4.40963 3.06287 4.01641 3.13419 3.63803 3.32698L4.54601 5.10899C4.59545 5.0838 4.69617 5.04612 4.96784 5.02393C5.25117 5.00078 5.62345 5 6.2 5V3ZM4 7.2C4 6.62345 4.00078 6.25117 4.02393 5.96784C4.04612 5.69617 4.0838 5.59545 4.10899 5.54601L2.32698 4.63803C2.13419 5.01641 2.06287 5.40963 2.03057 5.80497C1.99922 6.18864 2 6.65645 2 7.2H4ZM3.63803 3.32698C3.07354 3.6146 2.6146 4.07354 2.32698 4.63803L4.10899 5.54601C4.20487 5.35785 4.35785 5.20487 4.54601 5.10899L3.63803 3.32698Z" fill="currentColor"/>
    </symbol>
</svg>